<svg xmlns="http://www.w3.org/2000/svg" viewBox="0 0 1244 438.37"><defs><style
    >.cls-1{fill:#82ba41;}.cls-2{fill:#f7b61e;}.cls-3{fill:#ec7b29;}.cls-4{fill:#c92128;}.cls-5{fill:#932680;}.cls-6{fill:#6d0d20;}.cls-7{fill:#58595b;}.cls-8{fill:#fff;}.cls-9{fill:#63b4d1;}</style></defs><title
  >askhrgreen-gtk_gtd_3Rs_AirQualty_Image</title><g
    id="Layer_4"
    data-name="Layer 4"
  ><rect
      class="cls-1"
      x="184.29"
      y="59.95"
      width="236.59"
      height="44.82"
      rx="1.5"
      ry="1.5"
    /><rect
      class="cls-2"
      x="184.29"
      y="118.03"
      width="236.59"
      height="44.82"
      rx="1.5"
      ry="1.5"
    /><rect
      class="cls-3"
      x="184.29"
      y="176.11"
      width="236.59"
      height="44.82"
      rx="1.5"
      ry="1.5"
    /><rect
      class="cls-4"
      x="184.29"
      y="233.39"
      width="236.59"
      height="44.82"
      rx="1.5"
      ry="1.5"
    /><rect
      class="cls-5"
      x="184.29"
      y="292.26"
      width="236.59"
      height="44.82"
      rx="1.5"
      ry="1.5"
    /><rect
      class="cls-6"
      x="184.29"
      y="350.34"
      width="236.59"
      height="44.82"
      rx="1.5"
      ry="1.5"
    /><path
      class="cls-7"
      d="M194,33a1,1,0,0,1,1,.68l2.81,9.47h.09l3-9.55a.76.76,0,0,1,.77-.6.61.61,0,0,1,.68.6,2.48,2.48,0,0,1-.17.68l-3.24,10.24a1.07,1.07,0,0,1-1,.85,1.09,1.09,0,0,1-1.11-.85L194,35.24h-.09l-2.73,9.3a1.09,1.09,0,0,1-1.11.85,1.07,1.07,0,0,1-1-.85L185.8,34.3a2.48,2.48,0,0,1-.17-.68.61.61,0,0,1,.68-.6.76.76,0,0,1,.77.6l3,9.55h.09L193,33.7a1,1,0,0,1,1-.68Z"
    /><path
      class="cls-7"
      d="M205.69,33.7v4.61h6.91V33.7a.63.63,0,0,1,.68-.68.62.62,0,0,1,.68.68V44.45a.68.68,0,1,1-1.36,0V39.59h-6.91v4.86a.68.68,0,1,1-1.36,0V33.7a.68.68,0,1,1,1.36,0Z"
    /><path
      class="cls-7"
      d="M218.74,34.39v4H224a.64.64,0,1,1,0,1.28h-5.29v4.09h7.08a.64.64,0,1,1,0,1.28h-7.76a.63.63,0,0,1-.68-.68V33.79a.63.63,0,0,1,.68-.68h7.59a.64.64,0,1,1,0,1.28Z"
    /><path
      class="cls-7"
      d="M237,42.57V33.7a.68.68,0,1,1,1.36,0V44.45a.63.63,0,0,1-.68.68c-.43,0-.7-.26-1-.68L230,35.58h-.08v8.87a.68.68,0,1,1-1.36,0V33.7a.63.63,0,0,1,.68-.68c.43,0,.7.26,1,.68l6.65,8.87Z"
    /><path
      class="cls-7"
      d="M251.42,33.45l4.52,10.41a1.68,1.68,0,0,1,.17.6.61.61,0,0,1-.6.68c-.51,0-.77-.6-.77-.6l-1.19-2.81h-6.31L246,44.54s-.26.6-.77.6a.61.61,0,0,1-.6-.68,1.68,1.68,0,0,1,.17-.6l4.52-10.41a1.11,1.11,0,0,1,2,0Zm-1,1.19h-.1l-2.51,5.8H253Z"
    /><path
      class="cls-7"
      d="M265.24,44.54a5.32,5.32,0,0,1-3.07.85,4.77,4.77,0,0,1-5.12-4.86v-2.9a5.12,5.12,0,0,1,10.24,0v2.9a4.75,4.75,0,0,1-1,3.07l1.19,1.19a.74.74,0,0,1,.26.51A.63.63,0,0,1,267,46a.74.74,0,0,1-.51-.26Zm-1-.94-1.71-1.71a.74.74,0,0,1-.26-.51.63.63,0,0,1,.68-.68.74.74,0,0,1,.51.26l1.79,1.71a3.67,3.67,0,0,0,.68-2.13v-2.9a3.76,3.76,0,0,0-7.51,0v2.9a3.54,3.54,0,0,0,3.75,3.58A3.59,3.59,0,0,0,264.22,43.6Z"
    /><path
      class="cls-7"
      d="M271.56,44.45a.68.68,0,1,1-1.36,0V33.7a.68.68,0,1,1,1.36,0Z"
    /><path
      class="cls-7"
      d="M280.78,44.45a.68.68,0,1,1-1.36,0V33.7a.68.68,0,1,1,1.36,0Z"
    /><path
      class="cls-7"
      d="M283.08,42.66a.61.61,0,0,1,.6-.68.69.69,0,0,1,.51.26,4.11,4.11,0,0,0,3.58,1.88c2.39,0,3.41-1,3.41-2.39,0-3-7.68-1.28-7.68-5.63,0-1.79,1.54-3.33,4.52-3.33,2.73,0,4.44,1.71,4.44,2.39a.61.61,0,0,1-.6.68.73.73,0,0,1-.51-.26A4,4,0,0,0,288,34c-2.13,0-3.07.94-3.07,2,0,3,7.68,1.28,7.68,5.63,0,2-1.62,3.67-4.86,3.67C285,45.39,283.08,43.51,283.08,42.66Z"
    /><path
      class="cls-7"
      d="M300.74,44.45a.68.68,0,1,1-1.36,0V33.7a.68.68,0,1,1,1.36,0Z"
    /><path
      class="cls-7"
      d="M312.6,42.57V33.7a.68.68,0,1,1,1.36,0V44.45a.63.63,0,0,1-.68.68c-.43,0-.7-.26-1-.68l-6.65-8.87h-.08v8.87a.68.68,0,1,1-1.36,0V33.7a.63.63,0,0,1,.68-.68c.43,0,.7.26,1,.68l6.65,8.87Z"
    /><path
      class="cls-7"
      d="M326.08,34.39V44.45a.68.68,0,1,1-1.36,0V34.39H321a.64.64,0,1,1,0-1.28h8.79a.64.64,0,1,1,0,1.28Z"
    /><path
      class="cls-7"
      d="M333.68,33.7v4.61h6.91V33.7a.63.63,0,0,1,.68-.68.62.62,0,0,1,.68.68V44.45a.68.68,0,1,1-1.36,0V39.59h-6.91v4.86a.68.68,0,1,1-1.36,0V33.7a.68.68,0,1,1,1.36,0Z"
    /><path
      class="cls-7"
      d="M346.74,44.45a.68.68,0,1,1-1.36,0V33.7a.68.68,0,1,1,1.36,0Z"
    /><path
      class="cls-7"
      d="M349,42.66a.61.61,0,0,1,.6-.68.69.69,0,0,1,.51.26,4.11,4.11,0,0,0,3.58,1.88c2.39,0,3.41-1,3.41-2.39,0-3-7.68-1.28-7.68-5.63,0-1.79,1.54-3.33,4.52-3.33,2.73,0,4.44,1.71,4.44,2.39a.61.61,0,0,1-.6.68.73.73,0,0,1-.51-.26A4,4,0,0,0,354,34c-2.13,0-3.07.94-3.07,2,0,3,7.68,1.28,7.68,5.63,0,2-1.62,3.67-4.86,3.67C350.92,45.39,349,43.51,349,42.66Z"
    /><path
      class="cls-7"
      d="M366.7,40.1v4.4a.6.6,0,0,1-.68.63.61.61,0,0,1-.68-.63V33.79a.63.63,0,0,1,.68-.68h4.27c2.9,0,4.44,1.54,4.44,3.5A3.26,3.26,0,0,1,372,39.84v.09L375.15,44a.65.65,0,0,1,.17.43.64.64,0,0,1-.68.68.57.57,0,0,1-.51-.26l-3.75-4.78Zm0-5.71v4.44h3.58c2,0,3-.94,3-2.22s-.94-2.22-3-2.22Z"
    /><path
      class="cls-7"
      d="M382.57,33.45l4.52,10.41a1.68,1.68,0,0,1,.17.6.61.61,0,0,1-.6.68c-.51,0-.77-.6-.77-.6l-1.19-2.81h-6.31l-1.19,2.81s-.26.6-.77.6a.61.61,0,0,1-.6-.68,1.68,1.68,0,0,1,.17-.6l4.52-10.41a1.11,1.11,0,0,1,2,0Zm-1,1.19h-.1L379,40.44h5.12Z"
    /><path
      class="cls-7"
      d="M397.59,42.57V33.7a.68.68,0,1,1,1.36,0V44.45a.63.63,0,0,1-.68.68c-.43,0-.7-.26-1-.68l-6.65-8.87h-.08v8.87a.68.68,0,1,1-1.36,0V33.7a.63.63,0,0,1,.68-.68c.43,0,.7.26,1,.68l6.65,8.87Z"
    /><path
      class="cls-7"
      d="M401.77,37.63a4.77,4.77,0,0,1,5.12-4.86c2.73,0,4.44,1.71,4.44,2.39a.61.61,0,0,1-.6.68.67.67,0,0,1-.51-.26A4,4,0,0,0,406.89,34a3.54,3.54,0,0,0-3.75,3.58v2.9a3.54,3.54,0,0,0,3.75,3.58,4.24,4.24,0,0,0,3.24-1.45v-2.9h-2.9a.64.64,0,0,1,0-1.28h3.58a.63.63,0,0,1,.68.68v3.33a1.79,1.79,0,0,1-.34,1,5.28,5.28,0,0,1-4.27,1.88,4.77,4.77,0,0,1-5.12-4.86Z"
    /><path
      class="cls-7"
      d="M415.68,34.39v4H421a.64.64,0,1,1,0,1.28h-5.29v4.09h7.08a.64.64,0,1,1,0,1.28H415a.63.63,0,0,1-.68-.68V33.79a.63.63,0,0,1,.68-.68h7.59a.64.64,0,1,1,0,1.28Z"
    /><path
      class="cls-7"
      d="M489.38,33.45l4.52,10.41a1.68,1.68,0,0,1,.17.6.61.61,0,0,1-.6.68c-.51,0-.77-.6-.77-.6l-1.19-2.81H485.2L484,44.54s-.26.6-.77.6a.61.61,0,0,1-.6-.68,1.68,1.68,0,0,1,.17-.6l4.52-10.41a1.11,1.11,0,0,1,2,0Zm-1,1.19h-.1l-2.51,5.8h5.12Z"
    /><path
      class="cls-7"
      d="M497.31,44.45a.68.68,0,1,1-1.36,0V33.7a.68.68,0,1,1,1.36,0Z"
    /><path
      class="cls-7"
      d="M502.09,40.1v4.4a.6.6,0,0,1-.68.63.61.61,0,0,1-.68-.63V33.79a.63.63,0,0,1,.68-.68h4.27c2.9,0,4.44,1.54,4.44,3.5a3.26,3.26,0,0,1-2.73,3.24v.09L510.54,44a.65.65,0,0,1,.17.43.64.64,0,0,1-.68.68.57.57,0,0,1-.51-.26l-3.75-4.78Zm0-5.71v4.44h3.58c2,0,3-.94,3-2.22s-.94-2.22-3-2.22Z"
    /><path
      class="cls-7"
      d="M524.79,44.54a5.32,5.32,0,0,1-3.07.85,4.77,4.77,0,0,1-5.12-4.86v-2.9a5.12,5.12,0,0,1,10.24,0v2.9a4.75,4.75,0,0,1-1,3.07L527,44.79a.74.74,0,0,1,.26.51.63.63,0,0,1-.68.68.74.74,0,0,1-.51-.26Zm-1-.94-1.71-1.71a.74.74,0,0,1-.26-.51.63.63,0,0,1,.68-.68A.74.74,0,0,1,523,41l1.79,1.71a3.67,3.67,0,0,0,.68-2.13v-2.9a3.76,3.76,0,0,0-7.51,0v2.9a3.54,3.54,0,0,0,3.75,3.58A3.59,3.59,0,0,0,523.77,43.6Z"
    /><path
      class="cls-7"
      d="M531.11,33.7v7.16a3.51,3.51,0,0,0,7,0V33.7a.68.68,0,1,1,1.36,0v7.16a4.87,4.87,0,0,1-9.72,0V33.7a.68.68,0,1,1,1.36,0Z"
    /><path
      class="cls-7"
      d="M547.74,33.45l4.52,10.41a1.68,1.68,0,0,1,.17.6.61.61,0,0,1-.6.68c-.51,0-.77-.6-.77-.6l-1.19-2.81h-6.31l-1.19,2.81s-.26.6-.77.6a.61.61,0,0,1-.6-.68,1.68,1.68,0,0,1,.17-.6l4.52-10.41a1.11,1.11,0,0,1,2,0Zm-1,1.19h-.1l-2.51,5.8h5.12Z"
    /><path
      class="cls-7"
      d="M555.68,43.77h6.57a.64.64,0,1,1,0,1.28H555a.63.63,0,0,1-.68-.68V33.7a.68.68,0,1,1,1.36,0Z"
    /><path
      class="cls-7"
      d="M566.18,44.45a.68.68,0,1,1-1.37,0V33.7a.68.68,0,1,1,1.37,0Z"
    /><path
      class="cls-7"
      d="M573.85,34.39V44.45a.68.68,0,1,1-1.36,0V34.39h-3.75a.64.64,0,1,1,0-1.28h8.79a.64.64,0,1,1,0,1.28Z"
    /><path
      class="cls-7"
      d="M583.72,39h.07l4-5.6c.19-.26.36-.43.61-.43a.66.66,0,0,1,.68.6,1.19,1.19,0,0,1-.34.77l-4.35,6.06v4a.68.68,0,1,1-1.36,0v-4l-4.35-6.06a1.19,1.19,0,0,1-.34-.77.66.66,0,0,1,.68-.6c.26,0,.43.17.61.43Z"
    /><path
      class="cls-7"
      d="M594.68,37.63a4.77,4.77,0,0,1,5.12-4.86c2.73,0,4.44,1.71,4.44,2.39a.61.61,0,0,1-.6.68.67.67,0,0,1-.51-.26A4,4,0,0,0,599.79,34,3.54,3.54,0,0,0,596,37.63v2.9a3.54,3.54,0,0,0,3.75,3.58,4.11,4.11,0,0,0,3.58-1.88.64.64,0,0,1,.51-.26.61.61,0,0,1,.6.68c0,.85-1.88,2.73-4.69,2.73a4.77,4.77,0,0,1-5.12-4.86Z"
    /><path
      class="cls-7"
      d="M606.2,40.53v-2.9a5.12,5.12,0,0,1,10.24,0v2.9a5.12,5.12,0,0,1-10.24,0Zm8.87,0v-2.9a3.76,3.76,0,0,0-7.51,0v2.9a3.76,3.76,0,0,0,7.51,0Z"
    /><path
      class="cls-7"
      d="M627.7,42.57V33.7a.68.68,0,1,1,1.36,0V44.45a.63.63,0,0,1-.68.68c-.43,0-.7-.26-1-.68l-6.65-8.87h-.09v8.87a.68.68,0,1,1-1.36,0V33.7a.63.63,0,0,1,.68-.68c.43,0,.7.26,1,.68l6.65,8.87Z"
    /><path
      class="cls-7"
      d="M637,33.11A4.77,4.77,0,0,1,642.12,38v2.22A4.77,4.77,0,0,1,637,45h-3.84a.63.63,0,0,1-.68-.68V33.79a.63.63,0,0,1,.68-.68Zm0,10.66a3.54,3.54,0,0,0,3.75-3.58V38A3.54,3.54,0,0,0,637,34.39h-3.16v9.38Z"
    /><path
      class="cls-7"
      d="M646.3,44.45a.68.68,0,1,1-1.36,0V33.7a.68.68,0,1,1,1.36,0Z"
    /><path
      class="cls-7"
      d="M654,34.39V44.45a.68.68,0,1,1-1.36,0V34.39h-3.75a.64.64,0,1,1,0-1.28h8.79a.64.64,0,1,1,0,1.28Z"
    /><path
      class="cls-7"
      d="M661.57,44.45a.68.68,0,1,1-1.36,0V33.7a.68.68,0,1,1,1.36,0Z"
    /><path
      class="cls-7"
      d="M664.39,40.53v-2.9a5.12,5.12,0,0,1,10.24,0v2.9a5.12,5.12,0,0,1-10.24,0Zm8.87,0v-2.9a3.76,3.76,0,0,0-7.51,0v2.9a3.76,3.76,0,0,0,7.51,0Z"
    /><path
      class="cls-7"
      d="M685.89,42.57V33.7a.68.68,0,1,1,1.36,0V44.45a.63.63,0,0,1-.68.68c-.43,0-.7-.26-1-.68l-6.65-8.87h-.09v8.87a.68.68,0,1,1-1.36,0V33.7a.63.63,0,0,1,.68-.68c.43,0,.7.26,1,.68l6.65,8.87Z"
    /><path
      class="cls-7"
      d="M689.56,42.66a.61.61,0,0,1,.6-.68.69.69,0,0,1,.51.26,4.11,4.11,0,0,0,3.58,1.88c2.39,0,3.41-1,3.41-2.39,0-3-7.68-1.28-7.68-5.63,0-1.79,1.54-3.33,4.52-3.33,2.73,0,4.44,1.71,4.44,2.39a.61.61,0,0,1-.6.68.73.73,0,0,1-.51-.26A4,4,0,0,0,694.51,34c-2.13,0-3.07.94-3.07,2,0,3,7.68,1.28,7.68,5.63,0,2-1.62,3.67-4.86,3.67C691.44,45.39,689.56,43.51,689.56,42.66Z"
    /><path
      class="cls-7"
      d="M711.07,33.45l4.52,10.41a1.68,1.68,0,0,1,.17.6.61.61,0,0,1-.6.68c-.51,0-.77-.6-.77-.6l-1.19-2.81h-6.31l-1.19,2.81s-.26.6-.77.6a.61.61,0,0,1-.6-.68,1.69,1.69,0,0,1,.17-.6L709,33.45a1.11,1.11,0,0,1,2,0Zm-1,1.19H710l-2.51,5.8h5.12Z"
    /><path
      class="cls-7"
      d="M719,40.1v4.4a.6.6,0,0,1-.68.63.61.61,0,0,1-.68-.63V33.79a.63.63,0,0,1,.68-.68h4.26c2.9,0,4.44,1.54,4.44,3.5a3.26,3.26,0,0,1-2.73,3.24v.09L727.45,44a.66.66,0,0,1-.51,1.11.57.57,0,0,1-.51-.26l-3.75-4.78Zm0-5.71v4.44h3.58c2,0,3-.94,3-2.22s-.94-2.22-3-2.22Z"
    /><path
      class="cls-7"
      d="M731,34.39v4h5.29a.64.64,0,1,1,0,1.28H731v4.09h7.08a.64.64,0,1,1,0,1.28h-7.76a.63.63,0,0,1-.68-.68V33.79a.63.63,0,0,1,.68-.68h7.59a.64.64,0,1,1,0,1.28Z"
    /><path
      class="cls-8"
      d="M280,77.47v6.36c0,5.65-4.24,9.89-10.25,9.89s-10.25-4.24-10.25-9.89V77.47c0-5.65,4.24-9.9,10.25-9.9S280,71.82,280,77.47ZM275,83.83V77.47a5.3,5.3,0,0,0-10.6,0v6.36a5.3,5.3,0,0,0,10.6,0Z"
    /><path
      class="cls-8"
      d="M284.74,83.13a2.12,2.12,0,1,1,0-4.24h12.72a2.12,2.12,0,0,1,0,4.24Z"
    /><path
      class="cls-8"
      d="M316.72,85.25c0-2.12-1.77-3.89-5.12-3.89-3.89,0-3.89,1.06-6.36,1.06a2.27,2.27,0,0,1-2.3-2.3V70.76a2.42,2.42,0,0,1,2.47-2.47h13.25a2.3,2.3,0,0,1,0,4.59H307.89v4.95h.18a10,10,0,0,1,4.81-1.06,8.71,8.71,0,0,1,9,8.48c0,4.59-3.89,8.48-10.25,8.48-6,0-9.9-3.89-9.9-5.83a2.34,2.34,0,0,1,2.3-2.3,2.53,2.53,0,0,1,1.94.88,7.45,7.45,0,0,0,5.65,2.65C315,89.13,316.72,87.44,316.72,85.25Z"
    /><path
      class="cls-8"
      d="M345.7,77.47v6.36c0,5.65-4.24,9.89-10.25,9.89s-10.25-4.24-10.25-9.89V77.47c0-5.65,4.24-9.9,10.25-9.9S345.7,71.82,345.7,77.47Zm-4.95,6.36V77.47a5.3,5.3,0,0,0-10.6,0v6.36a5.3,5.3,0,0,0,10.6,0Z"
    /><path
      class="cls-1"
      d="M481.91,82.81V77.15c0-5.65,4.59-10.25,11.13-10.25,6,0,9.36,3.36,9.36,5.3a2.34,2.34,0,0,1-2.3,2.3,2.53,2.53,0,0,1-1.94-.88A6.08,6.08,0,0,0,493,71.5c-3.71,0-6.18,2.47-6.18,5.65v5.65c0,3.18,2.47,5.65,6.18,5.65A7.52,7.52,0,0,0,498,86.52V82.81h-3.53a2.3,2.3,0,1,1,0-4.59h6a2.32,2.32,0,0,1,2.47,2.47v7.07c0,1.41-3.89,5.3-9.9,5.3C486.5,93.05,481.91,88.46,481.91,82.81Z"
    /><path
      class="cls-1"
      d="M529.09,82.81c0,5.65-4.59,10.25-11.13,10.25s-11.13-4.59-11.13-10.25V77.15c0-5.65,4.59-10.25,11.13-10.25s11.13,4.59,11.13,10.25Zm-4.95,0V77.15c0-3.18-2.47-5.65-6.18-5.65s-6.18,2.47-6.18,5.65v5.65c0,3.18,2.47,5.65,6.18,5.65S524.14,86,524.14,82.81Z"
    /><path
      class="cls-1"
      d="M555.24,82.81c0,5.65-4.59,10.25-11.13,10.25S533,88.46,533,82.81V77.15c0-5.65,4.59-10.25,11.13-10.25s11.13,4.59,11.13,10.25Zm-4.95,0V77.15c0-3.18-2.47-5.65-6.18-5.65s-6.18,2.47-6.18,5.65v5.65c0,3.18,2.47,5.65,6.18,5.65S550.29,86,550.29,82.81Z"
    /><path
      class="cls-1"
      d="M569.59,67.61c6.68,0,11.27,4.59,11.27,10.28v4.17c0,5.69-4.59,10.28-11.27,10.28h-7.1A2.42,2.42,0,0,1,560,89.87V70.08a2.42,2.42,0,0,1,2.47-2.47Zm0,20.14c3.85,0,6.33-2.47,6.33-5.69V77.89c0-3.22-2.47-5.69-6.33-5.69H565V87.75Z"
    /><path
      class="cls-8"
      d="M257.88,143.32c0-2.12-1.77-3.89-5.12-3.89-3.89,0-3.89,1.06-6.36,1.06a2.27,2.27,0,0,1-2.3-2.3v-9.36a2.42,2.42,0,0,1,2.47-2.47h13.25a2.3,2.3,0,0,1,0,4.59H249v4.95h.18a10,10,0,0,1,4.81-1.06,8.71,8.71,0,0,1,9,8.48c0,4.59-3.89,8.48-10.25,8.48-6,0-9.9-3.89-9.9-5.83a2.34,2.34,0,0,1,2.3-2.3,2.53,2.53,0,0,1,1.94.88,7.45,7.45,0,0,0,5.65,2.65C256.11,147.21,257.88,145.51,257.88,143.32Z"
    /><path
      class="cls-8"
      d="M277.67,148.8a2.47,2.47,0,0,1-4.95,0V133.43h-.18L268.66,137a2.61,2.61,0,0,1-1.59.67,2.09,2.09,0,0,1-1.94-2.08,3,3,0,0,1,1.06-1.94l5.48-5.48c1.41-1.41,2.12-1.94,3.53-1.94a2.42,2.42,0,0,1,2.47,2.47Z"
    /><path
      class="cls-8"
      d="M283.33,141.2a2.12,2.12,0,0,1,0-4.24H296a2.12,2.12,0,1,1,0,4.24Z"
    /><path
      class="cls-8"
      d="M312.13,148.8a2.47,2.47,0,0,1-4.95,0V133.43H307L303.12,137a2.61,2.61,0,0,1-1.59.67,2.09,2.09,0,0,1-1.94-2.08,3,3,0,0,1,1.06-1.94l5.48-5.48c1.41-1.41,2.12-1.94,3.53-1.94a2.42,2.42,0,0,1,2.47,2.47Z"
    /><path
      class="cls-8"
      d="M337.4,135.55v6.36c0,5.65-4.24,9.89-10.25,9.89s-10.25-4.24-10.25-9.89v-6.36c0-5.65,4.24-9.9,10.25-9.9S337.4,129.89,337.4,135.55Zm-4.95,6.36v-6.36a5.3,5.3,0,0,0-10.6,0v6.36a5.3,5.3,0,0,0,10.6,0Z"
    /><path
      class="cls-8"
      d="M361.78,135.55v6.36c0,5.65-4.24,9.89-10.25,9.89s-10.25-4.24-10.25-9.89v-6.36c0-5.65,4.24-9.9,10.25-9.9S361.78,129.89,361.78,135.55Zm-4.95,6.36v-6.36a5.3,5.3,0,0,0-10.6,0v6.36a5.3,5.3,0,0,0,10.6,0Z"
    /><path
      class="cls-2"
      d="M511,126.95l3.18,18.73a10.32,10.32,0,0,1,.18,1.77,2.41,2.41,0,0,1-4.77.35l-2.65-15.55h-.18L500.91,145a2.66,2.66,0,0,1-5.12,0L490,132.25h-.18l-2.65,15.55a2.41,2.41,0,0,1-4.77-.35,10.32,10.32,0,0,1,.18-1.77l3.18-18.73a3.36,3.36,0,0,1,3.36-2.83,3.71,3.71,0,0,1,3.18,2.12l6,13.61h.18l6-13.61a3.71,3.71,0,0,1,3.18-2.12A3.36,3.36,0,0,1,511,126.95Z"
    /><path
      class="cls-2"
      d="M539.61,140c0,5.65-4.59,10.25-11.13,10.25s-11.13-4.59-11.13-10.25v-5.65c0-5.65,4.59-10.25,11.13-10.25s11.13,4.59,11.13,10.25Zm-4.95,0v-5.65c0-3.18-2.47-5.65-6.18-5.65s-6.18,2.47-6.18,5.65V140c0,3.18,2.47,5.65,6.18,5.65S534.66,143.2,534.66,140Z"
    /><path
      class="cls-2"
      d="M554,124.82c6.68,0,11.27,4.59,11.27,10.28v4.17c0,5.69-4.59,10.28-11.27,10.28h-7.1a2.42,2.42,0,0,1-2.47-2.47V127.3a2.42,2.42,0,0,1,2.47-2.47ZM554,145c3.85,0,6.33-2.47,6.33-5.69v-4.17c0-3.22-2.47-5.69-6.33-5.69h-4.63V145Z"
    /><path
      class="cls-2"
      d="M574.78,129.42v5.65h9.37a2.12,2.12,0,0,1,0,4.24h-9.37V145h12.9a2.3,2.3,0,0,1,0,4.59H572.3a2.42,2.42,0,0,1-2.47-2.47V127.3a2.42,2.42,0,0,1,2.47-2.47h15a2.3,2.3,0,0,1,0,4.59Z"
    /><path
      class="cls-2"
      d="M604.64,124.82c5.48,0,9,3.53,9,7.77a7.19,7.19,0,0,1-4.59,6.71v.18l4.95,6.18a3.37,3.37,0,0,1,.71,1.77,2.23,2.23,0,0,1-2.3,2.3,2.63,2.63,0,0,1-1.94-.88l-6.75-8.48H598.1v6.89a2.47,2.47,0,0,1-4.95,0v-20a2.42,2.42,0,0,1,2.47-2.47Zm0,4.59H598.1v6.36h6.54c2.47,0,3.89-1.41,3.89-3.18C608.53,130.66,607.11,129.42,604.64,129.42Z"
    /><path
      class="cls-2"
      d="M631.68,126.59l8.13,19.08a5.22,5.22,0,0,1,.35,1.59,2.48,2.48,0,0,1-2.47,2.47c-1.41,0-2.12-.74-2.65-2.12l-1.59-4.06h-11l-1.59,4.06c-.53,1.38-1.24,2.12-2.65,2.12a2.48,2.48,0,0,1-2.47-2.47,5.22,5.22,0,0,1,.35-1.59l8.13-19.08a4,4,0,0,1,7.42,0ZM624.26,139h7.42l-3.6-9h-.21Z"
    /><path
      class="cls-2"
      d="M657.83,124.82a2.3,2.3,0,1,1,0,4.59h-6v17.85a2.47,2.47,0,0,1-4.95,0V129.42h-6a2.3,2.3,0,1,1,0-4.59Z"
    /><path
      class="cls-2"
      d="M668.08,129.42v5.65h9.37a2.12,2.12,0,0,1,0,4.24h-9.37V145H681a2.3,2.3,0,0,1,0,4.59H665.61a2.42,2.42,0,0,1-2.47-2.47V127.3a2.42,2.42,0,0,1,2.47-2.47h15a2.3,2.3,0,0,1,0,4.59Z"
    /><path
      class="cls-8"
      d="M246.66,206.88a2.47,2.47,0,0,1-4.95,0V191.5h-.18L237.65,195a2.61,2.61,0,0,1-1.59.67,2.09,2.09,0,0,1-1.94-2.08,3,3,0,0,1,1.06-1.94l5.48-5.48c1.41-1.41,2.12-1.94,3.53-1.94a2.42,2.42,0,0,1,2.47,2.47Z"
    /><path
      class="cls-8"
      d="M271.93,193.62V200c0,5.65-4.24,9.89-10.25,9.89s-10.25-4.24-10.25-9.89v-6.36c0-5.65,4.24-9.9,10.25-9.9S271.93,188,271.93,193.62ZM267,200v-6.36a5.3,5.3,0,0,0-10.6,0V200a5.3,5.3,0,0,0,10.6,0Z"
    /><path
      class="cls-8"
      d="M287.13,206.88a2.47,2.47,0,0,1-4.95,0V191.5H282L278.11,195a2.61,2.61,0,0,1-1.59.67,2.09,2.09,0,0,1-1.94-2.08,3,3,0,0,1,1.06-1.94l5.48-5.48c1.41-1.41,2.12-1.94,3.53-1.94a2.42,2.42,0,0,1,2.47,2.47Z"
    /><path
      class="cls-8"
      d="M292.78,199.28a2.12,2.12,0,1,1,0-4.24H305.5a2.12,2.12,0,0,1,0,4.24Z"
    /><path
      class="cls-8"
      d="M321.58,206.88a2.47,2.47,0,0,1-4.95,0V191.5h-.18L312.57,195a2.61,2.61,0,0,1-1.59.67,2.09,2.09,0,0,1-1.94-2.08,3,3,0,0,1,1.06-1.94l5.48-5.48c1.41-1.41,2.12-1.94,3.53-1.94a2.42,2.42,0,0,1,2.47,2.47Z"
    /><path
      class="cls-8"
      d="M340.84,201.4c0-2.12-1.77-3.89-5.12-3.89-3.89,0-3.89,1.06-6.36,1.06a2.27,2.27,0,0,1-2.3-2.3v-9.36a2.42,2.42,0,0,1,2.47-2.47h13.25a2.3,2.3,0,0,1,0,4.59H332V194h.18a10,10,0,0,1,4.81-1.06,8.71,8.71,0,0,1,9,8.48c0,4.59-3.89,8.48-10.25,8.48-6,0-9.9-3.89-9.9-5.83a2.34,2.34,0,0,1,2.3-2.3,2.53,2.53,0,0,1,1.94.88,7.45,7.45,0,0,0,5.65,2.65C339.08,205.29,340.84,203.59,340.84,201.4Z"
    /><path
      class="cls-8"
      d="M369.82,193.62V200c0,5.65-4.24,9.89-10.25,9.89s-10.25-4.24-10.25-9.89v-6.36c0-5.65,4.24-9.9,10.25-9.9S369.82,188,369.82,193.62ZM364.88,200v-6.36a5.3,5.3,0,0,0-10.6,0V200a5.3,5.3,0,0,0,10.6,0Z"
    /><path
      class="cls-3"
      d="M487.27,187.48v13.43c0,3,2.12,5.12,5.65,5.12s5.65-2.12,5.65-5.16V187.48a2.47,2.47,0,0,1,4.95,0v13.39c0,5.51-4.24,9.75-10.6,9.75s-10.6-4.24-10.6-9.72V187.48a2.47,2.47,0,0,1,4.95,0Z"
    /><path
      class="cls-3"
      d="M525.62,201.09V187.48a2.47,2.47,0,0,1,4.95,0v20.14a2.42,2.42,0,0,1-2.47,2.47,2.64,2.64,0,0,1-2.47-1.24L514.13,194H514v13.61a2.47,2.47,0,0,1-4.95,0V187.48a2.42,2.42,0,0,1,2.47-2.47,2.64,2.64,0,0,1,2.47,1.24l11.49,14.84Z"
    /><path
      class="cls-3"
      d="M541.17,207.63a2.47,2.47,0,0,1-4.95,0V187.48a2.47,2.47,0,0,1,4.95,0v7.77H552.3v-7.77a2.47,2.47,0,0,1,4.95,0v20.14a2.47,2.47,0,0,1-4.95,0V199.5H541.17Z"
    /><path
      class="cls-3"
      d="M567.85,189.78v5.65h9.36a2.12,2.12,0,1,1,0,4.24h-9.36v5.65h12.9a2.3,2.3,0,0,1,0,4.59H565.38a2.42,2.42,0,0,1-2.47-2.47V187.66a2.42,2.42,0,0,1,2.47-2.47h15a2.3,2.3,0,1,1,0,4.59Z"
    /><path
      class="cls-3"
      d="M599.66,187,607.78,206a5.22,5.22,0,0,1,.35,1.59,2.48,2.48,0,0,1-2.47,2.47c-1.41,0-2.12-.74-2.65-2.12l-1.59-4.06h-11L588.88,208c-.53,1.38-1.24,2.12-2.65,2.12a2.48,2.48,0,0,1-2.47-2.47,5.22,5.22,0,0,1,.35-1.59L592.24,187a4,4,0,0,1,7.42,0Zm-7.42,12.37h7.42l-3.6-9h-.21Z"
    /><path
      class="cls-3"
      d="M627.93,205.33a2.3,2.3,0,0,1,0,4.59H613.79a2.42,2.42,0,0,1-2.47-2.47v-20a2.47,2.47,0,0,1,4.95,0v17.85Z"
    /><path
      class="cls-3"
      d="M646.13,185.19a2.3,2.3,0,1,1,0,4.59h-6v17.85a2.47,2.47,0,0,1-4.95,0V189.78h-6a2.3,2.3,0,1,1,0-4.59Z"
    /><path
      class="cls-3"
      d="M656.38,207.63a2.47,2.47,0,0,1-4.95,0V187.48a2.47,2.47,0,1,1,4.95,0v7.77h11.13v-7.77a2.47,2.47,0,0,1,4.95,0v20.14a2.47,2.47,0,0,1-4.95,0V199.5H656.38Z"
    /><path
      class="cls-3"
      d="M698.26,187.48a3.17,3.17,0,0,1-.88,1.94l-8.13,11.31v6.89a2.42,2.42,0,0,1-2.47,2.47,2.32,2.32,0,0,1-2.47-2.47v-6.89l-8.13-11.31a3.17,3.17,0,0,1-.88-1.94,2.42,2.42,0,0,1,2.47-2.47,3,3,0,0,1,2.12,1.24l6.79,9.36h.21l6.79-9.36a3,3,0,0,1,2.12-1.24A2.42,2.42,0,0,1,698.26,187.48Z"
    /><path
      class="cls-3"
      d="M715.58,189.78v6.54h8.13a2.34,2.34,0,0,1,2.3,2.3,2.32,2.32,0,0,1-2.3,2.3h-8.13v6.71a2.47,2.47,0,0,1-4.95,0v-20a2.42,2.42,0,0,1,2.47-2.47h14.84a2.34,2.34,0,0,1,2.3,2.3,2.36,2.36,0,0,1-2.3,2.3Z"
    /><path
      class="cls-3"
      d="M753.75,200.38c0,5.65-4.59,10.25-11.13,10.25s-11.13-4.59-11.13-10.25v-5.65c0-5.65,4.59-10.25,11.13-10.25s11.13,4.59,11.13,10.25Zm-4.95,0v-5.65c0-3.18-2.47-5.65-6.18-5.65s-6.18,2.47-6.18,5.65v5.65c0,3.18,2.47,5.65,6.18,5.65S748.8,203.56,748.8,200.38Z"
    /><path
      class="cls-3"
      d="M770,185.19c5.48,0,9,3.53,9,7.77a7.19,7.19,0,0,1-4.59,6.71v.18l4.95,6.18a3.37,3.37,0,0,1,.71,1.77,2.23,2.23,0,0,1-2.3,2.3,2.63,2.63,0,0,1-1.94-.88l-6.75-8.48h-5.62v6.89a2.47,2.47,0,0,1-4.95,0v-20a2.42,2.42,0,0,1,2.47-2.47Zm0,4.59h-6.54v6.36H770c2.47,0,3.89-1.41,3.89-3.18C773.89,191,772.48,189.78,770,189.78Z"
    /><path
      class="cls-3"
      d="M806.94,202.68c0-4.24-14.84-1.77-14.84-10.78,0-3.89,3.53-7.42,9.9-7.42,6,0,9.37,3.36,9.37,5.3a2.34,2.34,0,0,1-2.3,2.3,2.53,2.53,0,0,1-1.94-.88,6.09,6.09,0,0,0-5.12-2.12c-3.36,0-4.77,1.41-4.77,2.83,0,4.42,14.84,1.77,14.84,10.78,0,4.24-3.71,8-10.78,8-6,0-9.89-3.89-9.89-5.83a2.34,2.34,0,0,1,2.3-2.3,2.53,2.53,0,0,1,1.94.88,7.45,7.45,0,0,0,5.65,2.65C805.52,206,806.94,204.62,806.94,202.68Z"
    /><path
      class="cls-3"
      d="M820.9,189.78v5.65h9.37a2.12,2.12,0,0,1,0,4.24H820.9v5.65h12.9a2.3,2.3,0,0,1,0,4.59H818.42a2.42,2.42,0,0,1-2.47-2.47V187.66a2.42,2.42,0,0,1,2.47-2.47h15a2.3,2.3,0,0,1,0,4.59Z"
    /><path
      class="cls-3"
      d="M855.88,201.09V187.48a2.47,2.47,0,0,1,4.95,0v20.14a2.42,2.42,0,0,1-2.47,2.47,2.64,2.64,0,0,1-2.47-1.24L844.4,194h-.18v13.61a2.47,2.47,0,1,1-4.95,0V187.48a2.42,2.42,0,0,1,2.47-2.47,2.64,2.64,0,0,1,2.47,1.24l11.49,14.84Z"
    /><path
      class="cls-3"
      d="M880.27,202.68c0-4.24-14.84-1.77-14.84-10.78,0-3.89,3.53-7.42,9.9-7.42,6,0,9.37,3.36,9.37,5.3a2.34,2.34,0,0,1-2.3,2.3,2.53,2.53,0,0,1-1.94-.88,6.09,6.09,0,0,0-5.12-2.12c-3.36,0-4.77,1.41-4.77,2.83,0,4.42,14.84,1.77,14.84,10.78,0,4.24-3.71,8-10.78,8-6,0-9.89-3.89-9.89-5.83a2.34,2.34,0,0,1,2.3-2.3,2.53,2.53,0,0,1,1.94.88,7.45,7.45,0,0,0,5.65,2.65C878.86,206,880.27,204.62,880.27,202.68Z"
    /><path
      class="cls-3"
      d="M894.23,207.63a2.47,2.47,0,1,1-4.95,0V187.48a2.47,2.47,0,0,1,4.95,0Z"
    /><path
      class="cls-3"
      d="M916.49,185.19a2.3,2.3,0,1,1,0,4.59h-6v17.85a2.47,2.47,0,0,1-4.95,0V189.78h-6a2.3,2.3,0,1,1,0-4.59Z"
    /><path
      class="cls-3"
      d="M926.74,207.63a2.47,2.47,0,0,1-4.95,0V187.48a2.47,2.47,0,0,1,4.95,0Z"
    /><path
      class="cls-3"
      d="M953.07,187.48a5.22,5.22,0,0,1-.35,1.59l-7.42,19.08a4.15,4.15,0,0,1-7.6,0l-7.42-19.08a5.22,5.22,0,0,1-.35-1.59A2.42,2.42,0,0,1,932.4,185a2.68,2.68,0,0,1,2.47,1.94l6.54,17.67h.18L948.13,187A2.69,2.69,0,0,1,950.6,185,2.42,2.42,0,0,1,953.07,187.48Z"
    /><path
      class="cls-3"
      d="M961.2,189.78v5.65h9.37a2.12,2.12,0,0,1,0,4.24H961.2v5.65h12.9a2.3,2.3,0,0,1,0,4.59H958.73a2.42,2.42,0,0,1-2.47-2.47V187.66a2.42,2.42,0,0,1,2.47-2.47h15a2.3,2.3,0,0,1,0,4.59Z"
    /><path
      class="cls-3"
      d="M988.24,200.38v-5.65c0-5.65,4.59-10.25,11.13-10.25,6,0,9.37,3.36,9.37,5.3a2.34,2.34,0,0,1-2.3,2.3,2.53,2.53,0,0,1-1.94-.88,6.09,6.09,0,0,0-5.12-2.12c-3.71,0-6.18,2.47-6.18,5.65v5.65c0,3.18,2.47,5.65,6.18,5.65a7.52,7.52,0,0,0,4.95-1.94v-3.71h-3.53a2.3,2.3,0,0,1,0-4.59h6a2.32,2.32,0,0,1,2.47,2.47v7.07c0,1.41-3.89,5.3-9.9,5.3C992.83,210.63,988.24,206,988.24,200.38Z"
    /><path
      class="cls-3"
      d="M1025.52,185.19c5.48,0,9,3.53,9,7.77a7.19,7.19,0,0,1-4.59,6.71v.18l4.95,6.18a3.37,3.37,0,0,1,.71,1.77,2.23,2.23,0,0,1-2.3,2.3,2.63,2.63,0,0,1-1.94-.88l-6.75-8.48H1019v6.89a2.47,2.47,0,0,1-4.95,0v-20a2.42,2.42,0,0,1,2.47-2.47Zm0,4.59H1019v6.36h6.54c2.47,0,3.89-1.41,3.89-3.18C1029.41,191,1028,189.78,1025.52,189.78Z"
    /><path
      class="cls-3"
      d="M1060.51,200.38c0,5.65-4.59,10.25-11.13,10.25s-11.13-4.59-11.13-10.25v-5.65c0-5.65,4.59-10.25,11.13-10.25s11.13,4.59,11.13,10.25Zm-4.95,0v-5.65c0-3.18-2.47-5.65-6.18-5.65s-6.18,2.47-6.18,5.65v5.65c0,3.18,2.47,5.65,6.18,5.65S1055.56,203.56,1055.56,200.38Z"
    /><path
      class="cls-3"
      d="M1070.05,187.48v13.43c0,3,2.12,5.12,5.65,5.12s5.65-2.12,5.65-5.16V187.48a2.47,2.47,0,0,1,4.95,0v13.39c0,5.51-4.24,9.75-10.6,9.75s-10.6-4.24-10.6-9.72V187.48a2.47,2.47,0,0,1,4.95,0Z"
    /><path
      class="cls-3"
      d="M1102.39,185.19c6,0,9.9,3.89,9.9,8.48s-3.89,8.48-9.9,8.48h-5.65v5.48a2.47,2.47,0,0,1-4.95,0v-20a2.42,2.42,0,0,1,2.47-2.47Zm0,4.59h-5.65v7.77h5.65c3.18,0,4.77-1.59,4.77-3.89S1105.57,189.78,1102.39,189.78Z"
    /><path
      class="cls-3"
      d="M1129.78,202.68c0-4.24-14.84-1.77-14.84-10.78,0-3.89,3.53-7.42,9.9-7.42,6,0,9.37,3.36,9.37,5.3a2.34,2.34,0,0,1-2.3,2.3,2.53,2.53,0,0,1-1.94-.88,6.09,6.09,0,0,0-5.12-2.12c-3.36,0-4.77,1.41-4.77,2.83,0,4.42,14.84,1.77,14.84,10.78,0,4.24-3.71,8-10.78,8-6,0-9.89-3.89-9.89-5.83a2.34,2.34,0,0,1,2.3-2.3,2.53,2.53,0,0,1,1.94.88,7.45,7.45,0,0,0,5.65,2.65C1128.37,206,1129.78,204.62,1129.78,202.68Z"
    /><path
      class="cls-8"
      d="M243.66,264.16a2.47,2.47,0,0,1-4.95,0V248.79h-.18l-3.89,3.53a2.61,2.61,0,0,1-1.59.67,2.09,2.09,0,0,1-1.94-2.08,3,3,0,0,1,1.06-1.94l5.48-5.48c1.41-1.41,2.12-1.94,3.53-1.94a2.42,2.42,0,0,1,2.47,2.47Z"
    /><path
      class="cls-8"
      d="M262.92,258.68c0-2.12-1.77-3.89-5.12-3.89-3.89,0-3.89,1.06-6.36,1.06a2.27,2.27,0,0,1-2.3-2.3v-9.37a2.42,2.42,0,0,1,2.47-2.47h13.25a2.3,2.3,0,0,1,0,4.59H254.08v4.95h.18a10,10,0,0,1,4.81-1.06,8.71,8.71,0,0,1,9,8.48c0,4.59-3.89,8.48-10.25,8.48-6,0-9.9-3.89-9.9-5.83a2.34,2.34,0,0,1,2.3-2.3,2.53,2.53,0,0,1,1.94.88,7.45,7.45,0,0,0,5.65,2.65C261.15,262.57,262.92,260.87,262.92,258.68Z"
    /><path
      class="cls-8"
      d="M282.71,264.16a2.47,2.47,0,0,1-4.95,0V248.79h-.18l-3.89,3.53a2.61,2.61,0,0,1-1.59.67,2.09,2.09,0,0,1-1.94-2.08,3,3,0,0,1,1.06-1.94l5.48-5.48c1.41-1.41,2.12-1.94,3.53-1.94a2.42,2.42,0,0,1,2.47,2.47Z"
    /><path
      class="cls-8"
      d="M288.36,256.56a2.12,2.12,0,1,1,0-4.24h12.72a2.12,2.12,0,1,1,0,4.24Z"
    /><path
      class="cls-8"
      d="M312.22,261.86h10.07a2.3,2.3,0,0,1,0,4.59H306.92a2.34,2.34,0,0,1-2.3-2.3,4.15,4.15,0,0,1,1.94-3.71l9.72-6.89c1.77-1.24,3-2.47,3-4.42s-1.7-3.53-4.95-3.53a6.09,6.09,0,0,0-5.12,2.12,2.53,2.53,0,0,1-1.94.88,2.34,2.34,0,0,1-2.3-2.3c0-1.94,3.36-5.3,9.37-5.3,6.36,0,10.07,3.68,10.07,8.13,0,3-2.16,5.37-6,8.13l-6.18,4.42Z"
    /><path
      class="cls-8"
      d="M348.44,250.91v6.36c0,5.65-4.24,9.9-10.25,9.9s-10.25-4.24-10.25-9.9v-6.36c0-5.65,4.24-9.9,10.25-9.9S348.44,245.25,348.44,250.91Zm-4.95,6.36v-6.36a5.3,5.3,0,0,0-10.6,0v6.36a5.3,5.3,0,0,0,10.6,0Z"
    /><path
      class="cls-8"
      d="M372.83,250.91v6.36c0,5.65-4.24,9.9-10.25,9.9s-10.25-4.24-10.25-9.9v-6.36c0-5.65,4.24-9.9,10.25-9.9S372.83,245.25,372.83,250.91Zm-4.95,6.36v-6.36a5.3,5.3,0,0,0-10.6,0v6.36a5.3,5.3,0,0,0,10.6,0Z"
    /><path
      class="cls-8"
      d="M234.73,320.74H244.8a2.3,2.3,0,0,1,0,4.59H229.43a2.34,2.34,0,0,1-2.3-2.3,4.15,4.15,0,0,1,1.94-3.71l9.72-6.89c1.77-1.24,3-2.47,3-4.42s-1.7-3.53-4.95-3.53a6.08,6.08,0,0,0-5.12,2.12,2.53,2.53,0,0,1-1.94.88,2.34,2.34,0,0,1-2.3-2.3c0-1.94,3.36-5.3,9.37-5.3,6.36,0,10.07,3.68,10.07,8.13,0,3-2.16,5.37-6,8.13l-6.18,4.42Z"
    /><path
      class="cls-8"
      d="M271,309.78v6.36c0,5.65-4.24,9.9-10.25,9.9s-10.25-4.24-10.25-9.9v-6.36c0-5.65,4.24-9.89,10.25-9.89S271,304.12,271,309.78ZM266,316.14v-6.36a5.3,5.3,0,0,0-10.6,0v6.36a5.3,5.3,0,0,0,10.6,0Z"
    /><path
      class="cls-8"
      d="M286.15,323a2.47,2.47,0,0,1-4.95,0V307.66H281l-3.89,3.53a2.61,2.61,0,0,1-1.59.67,2.09,2.09,0,0,1-1.94-2.09,3,3,0,0,1,1.06-1.94l5.48-5.48c1.41-1.41,2.12-1.94,3.53-1.94a2.42,2.42,0,0,1,2.47,2.47Z"
    /><path
      class="cls-8"
      d="M291.81,315.43a2.12,2.12,0,1,1,0-4.24h12.72a2.12,2.12,0,0,1,0,4.24Z"
    /><path
      class="cls-8"
      d="M323.44,317.73c0-2.12-1.59-3.71-4.77-3.71h-3.53a1.85,1.85,0,0,1-1.94-1.94,3.21,3.21,0,0,1,1.24-2.3l5.3-4.42v-.18h-8.48a2.3,2.3,0,0,1,0-4.59h14.14a2.34,2.34,0,0,1,2.3,2.3,2.9,2.9,0,0,1-1.24,2.47l-6,4.59v.18c4.95,0,8.13,3.18,8.13,7.6,0,4.77-3.53,8.3-10.6,8.3-6,0-9.89-3.89-9.89-5.83a2.34,2.34,0,0,1,2.3-2.3,2.53,2.53,0,0,1,1.94.88,7.45,7.45,0,0,0,5.65,2.65C322,321.44,323.44,319.85,323.44,317.73Z"
    /><path
      class="cls-8"
      d="M352.42,309.78v6.36c0,5.65-4.24,9.9-10.25,9.9s-10.25-4.24-10.25-9.9v-6.36c0-5.65,4.24-9.89,10.25-9.89S352.42,304.12,352.42,309.78Zm-4.95,6.36v-6.36a5.3,5.3,0,0,0-10.6,0v6.36a5.3,5.3,0,0,0,10.6,0Z"
    /><path
      class="cls-8"
      d="M376.8,309.78v6.36c0,5.65-4.24,9.9-10.25,9.9s-10.25-4.24-10.25-9.9v-6.36c0-5.65,4.24-9.89,10.25-9.89S376.8,304.12,376.8,309.78Zm-4.95,6.36v-6.36a5.3,5.3,0,0,0-10.6,0v6.36a5.3,5.3,0,0,0,10.6,0Z"
    /><path
      class="cls-8"
      d="M242.06,375.81c0-2.12-1.59-3.71-4.77-3.71h-3.53a1.85,1.85,0,0,1-1.94-1.94,3.21,3.21,0,0,1,1.24-2.3l5.3-4.42v-.18h-8.48a2.3,2.3,0,1,1,0-4.59H244a2.34,2.34,0,0,1,2.3,2.3,2.9,2.9,0,0,1-1.24,2.47l-6,4.59v.18c4.95,0,8.13,3.18,8.13,7.6,0,4.77-3.53,8.3-10.6,8.3-6,0-9.89-3.89-9.89-5.83A2.34,2.34,0,0,1,229,376a2.53,2.53,0,0,1,1.94.88,7.45,7.45,0,0,0,5.65,2.65C240.65,379.52,242.06,377.93,242.06,375.81Z"
    /><path
      class="cls-8"
      d="M271,367.86v6.36c0,5.65-4.24,9.9-10.25,9.9s-10.25-4.24-10.25-9.9v-6.36c0-5.65,4.24-9.89,10.25-9.89S271,362.2,271,367.86Zm-4.95,6.36v-6.36a5.3,5.3,0,0,0-10.6,0v6.36a5.3,5.3,0,0,0,10.6,0Z"
    /><path
      class="cls-8"
      d="M286.24,381.11a2.47,2.47,0,0,1-4.95,0V365.74h-.18l-3.89,3.53a2.61,2.61,0,0,1-1.59.67,2.09,2.09,0,0,1-1.94-2.09,3,3,0,0,1,1.06-1.94l5.48-5.48c1.41-1.41,2.12-1.94,3.53-1.94a2.42,2.42,0,0,1,2.47,2.47Z"
    /><path
      class="cls-8"
      d="M291.9,373.51a2.12,2.12,0,0,1,0-4.24h12.72a2.12,2.12,0,1,1,0,4.24Z"
    /><path
      class="cls-8"
      d="M323.88,375.63c0-2.12-1.77-3.89-5.12-3.89-3.89,0-3.89,1.06-6.36,1.06a2.27,2.27,0,0,1-2.3-2.3v-9.37a2.42,2.42,0,0,1,2.47-2.47h13.25a2.3,2.3,0,1,1,0,4.59H315v4.95h.18a10,10,0,0,1,4.81-1.06,8.71,8.71,0,0,1,9,8.48c0,4.59-3.89,8.48-10.25,8.48-6,0-9.9-3.89-9.9-5.83a2.34,2.34,0,0,1,2.3-2.3,2.53,2.53,0,0,1,1.94.88,7.45,7.45,0,0,0,5.65,2.65C322.11,379.52,323.88,377.82,323.88,375.63Z"
    /><path
      class="cls-8"
      d="M352.86,367.86v6.36c0,5.65-4.24,9.9-10.25,9.9s-10.25-4.24-10.25-9.9v-6.36c0-5.65,4.24-9.89,10.25-9.89S352.86,362.2,352.86,367.86Zm-4.95,6.36v-6.36a5.3,5.3,0,0,0-10.6,0v6.36a5.3,5.3,0,0,0,10.6,0Z"
    /><path
      class="cls-8"
      d="M377.25,367.86v6.36c0,5.65-4.24,9.9-10.25,9.9s-10.25-4.24-10.25-9.9v-6.36c0-5.65,4.24-9.89,10.25-9.89S377.25,362.2,377.25,367.86Zm-4.95,6.36v-6.36a5.3,5.3,0,0,0-10.6,0v6.36a5.3,5.3,0,0,0,10.6,0Z"
    /><path
      class="cls-4"
      d="M487.27,244.76v13.43c0,3,2.12,5.12,5.65,5.12s5.65-2.12,5.65-5.16V244.76a2.47,2.47,0,0,1,4.95,0v13.39c0,5.51-4.24,9.75-10.6,9.75s-10.6-4.24-10.6-9.72V244.76a2.47,2.47,0,0,1,4.95,0Z"
    /><path
      class="cls-4"
      d="M525.62,258.37V244.76a2.47,2.47,0,0,1,4.95,0v20.14a2.42,2.42,0,0,1-2.47,2.47,2.64,2.64,0,0,1-2.47-1.24L514.13,251.3H514v13.61a2.47,2.47,0,0,1-4.95,0V244.76a2.42,2.42,0,0,1,2.47-2.47,2.64,2.64,0,0,1,2.47,1.24l11.49,14.84Z"
    /><path
      class="cls-4"
      d="M541.17,264.91a2.47,2.47,0,0,1-4.95,0V244.76a2.47,2.47,0,0,1,4.95,0v7.77H552.3v-7.77a2.47,2.47,0,0,1,4.95,0v20.14a2.47,2.47,0,0,1-4.95,0v-8.13H541.17Z"
    /><path
      class="cls-4"
      d="M567.85,247.06v5.65h9.36a2.12,2.12,0,1,1,0,4.24h-9.36v5.65h12.9a2.3,2.3,0,0,1,0,4.59H565.38a2.42,2.42,0,0,1-2.47-2.47V244.94a2.42,2.42,0,0,1,2.47-2.47h15a2.3,2.3,0,1,1,0,4.59Z"
    /><path
      class="cls-4"
      d="M599.66,244.23l8.13,19.08a5.22,5.22,0,0,1,.35,1.59,2.48,2.48,0,0,1-2.47,2.47c-1.41,0-2.12-.74-2.65-2.12l-1.59-4.06h-11l-1.59,4.06c-.53,1.38-1.24,2.12-2.65,2.12a2.48,2.48,0,0,1-2.47-2.47,5.22,5.22,0,0,1,.35-1.59l8.13-19.08a4,4,0,0,1,7.42,0Zm-7.42,12.37h7.42l-3.6-9h-.21Z"
    /><path
      class="cls-4"
      d="M627.93,262.61a2.3,2.3,0,0,1,0,4.59H613.79a2.42,2.42,0,0,1-2.47-2.47v-20a2.47,2.47,0,0,1,4.95,0v17.85Z"
    /><path
      class="cls-4"
      d="M646.13,242.47a2.3,2.3,0,1,1,0,4.59h-6v17.85a2.47,2.47,0,0,1-4.95,0V247.06h-6a2.3,2.3,0,1,1,0-4.59Z"
    /><path
      class="cls-4"
      d="M656.38,264.91a2.47,2.47,0,0,1-4.95,0V244.76a2.47,2.47,0,1,1,4.95,0v7.77h11.13v-7.77a2.47,2.47,0,0,1,4.95,0v20.14a2.47,2.47,0,0,1-4.95,0v-8.13H656.38Z"
    /><path
      class="cls-4"
      d="M698.26,244.76a3.17,3.17,0,0,1-.88,1.94L689.25,258v6.89a2.42,2.42,0,0,1-2.47,2.47,2.32,2.32,0,0,1-2.47-2.47V258l-8.13-11.31a3.17,3.17,0,0,1-.88-1.94,2.42,2.42,0,0,1,2.47-2.47,3,3,0,0,1,2.12,1.24l6.79,9.36h.21l6.79-9.36a3,3,0,0,1,2.12-1.24A2.42,2.42,0,0,1,698.26,244.76Z"
    /><path
      class="cls-5"
      d="M503.17,301.51a5.22,5.22,0,0,1-.35,1.59l-7.42,19.08a4.15,4.15,0,0,1-7.6,0l-7.42-19.08a5.21,5.21,0,0,1-.35-1.59A2.42,2.42,0,0,1,482.5,299,2.68,2.68,0,0,1,485,301l6.54,17.67h.18L498.23,301A2.68,2.68,0,0,1,500.7,299,2.42,2.42,0,0,1,503.17,301.51Z"
    /><path
      class="cls-5"
      d="M511.3,303.81v5.65h9.37a2.12,2.12,0,0,1,0,4.24H511.3v5.65h12.9a2.3,2.3,0,1,1,0,4.59H508.83a2.42,2.42,0,0,1-2.47-2.47V301.69a2.42,2.42,0,0,1,2.47-2.47h15a2.3,2.3,0,0,1,0,4.59Z"
    /><path
      class="cls-5"
      d="M541.17,299.21c5.48,0,9,3.53,9,7.77a7.19,7.19,0,0,1-4.59,6.71v.18l4.95,6.18a3.37,3.37,0,0,1,.71,1.77,2.23,2.23,0,0,1-2.3,2.3,2.63,2.63,0,0,1-1.94-.88l-6.75-8.48h-5.62v6.89a2.47,2.47,0,0,1-4.95,0v-20a2.42,2.42,0,0,1,2.47-2.47Zm0,4.59h-6.54v6.36h6.54c2.47,0,3.89-1.41,3.89-3.18C545.05,305,543.64,303.81,541.17,303.81Z"
    /><path
      class="cls-5"
      d="M574.92,301.51a3.17,3.17,0,0,1-.88,1.94l-8.13,11.31v6.89a2.42,2.42,0,0,1-2.47,2.47,2.32,2.32,0,0,1-2.47-2.47v-6.89l-8.13-11.31a3.17,3.17,0,0,1-.88-1.94,2.42,2.42,0,0,1,2.47-2.47,3,3,0,0,1,2.12,1.24l6.79,9.37h.21l6.79-9.37a3,3,0,0,1,2.12-1.24A2.42,2.42,0,0,1,574.92,301.51Z"
    /><path
      class="cls-5"
      d="M592.06,301.51v13.43c0,3,2.12,5.12,5.65,5.12s5.65-2.12,5.65-5.16V301.51a2.47,2.47,0,0,1,4.95,0V314.9c0,5.51-4.24,9.75-10.6,9.75s-10.6-4.24-10.6-9.72V301.51a2.47,2.47,0,0,1,4.95,0Z"
    /><path
      class="cls-5"
      d="M630.4,315.12V301.51a2.47,2.47,0,1,1,4.95,0v20.14a2.42,2.42,0,0,1-2.47,2.47,2.64,2.64,0,0,1-2.47-1.24L618.92,308h-.18v13.61a2.47,2.47,0,0,1-4.95,0V301.51a2.42,2.42,0,0,1,2.47-2.47,2.64,2.64,0,0,1,2.47,1.24l11.49,14.84Z"
    /><path
      class="cls-5"
      d="M646,321.65a2.47,2.47,0,0,1-4.95,0V301.51a2.47,2.47,0,0,1,4.95,0v7.77h11.13v-7.77a2.47,2.47,0,0,1,4.95,0v20.14a2.47,2.47,0,0,1-4.95,0v-8.13H646Z"
    /><path
      class="cls-5"
      d="M672.64,303.81v5.65H682a2.12,2.12,0,0,1,0,4.24h-9.37v5.65h12.9a2.3,2.3,0,0,1,0,4.59H670.16a2.42,2.42,0,0,1-2.47-2.47V301.69a2.42,2.42,0,0,1,2.47-2.47h15a2.3,2.3,0,0,1,0,4.59Z"
    /><path
      class="cls-5"
      d="M704.44,301l8.13,19.08a5.22,5.22,0,0,1,.35,1.59,2.48,2.48,0,0,1-2.47,2.47c-1.41,0-2.12-.74-2.65-2.12l-1.59-4.06h-11L693.66,322c-.53,1.38-1.24,2.12-2.65,2.12a2.48,2.48,0,0,1-2.47-2.47,5.22,5.22,0,0,1,.35-1.59L697,301a4,4,0,0,1,7.42,0ZM697,313.35h7.42l-3.6-9h-.21Z"
    /><path
      class="cls-5"
      d="M732.72,319.36a2.3,2.3,0,0,1,0,4.59H718.58a2.42,2.42,0,0,1-2.47-2.47v-20a2.47,2.47,0,1,1,4.95,0v17.85Z"
    /><path
      class="cls-5"
      d="M750.92,299.21a2.3,2.3,0,1,1,0,4.59h-6v17.85a2.47,2.47,0,0,1-4.95,0V303.81h-6a2.3,2.3,0,1,1,0-4.59Z"
    /><path
      class="cls-5"
      d="M761.17,321.65a2.47,2.47,0,0,1-4.95,0V301.51a2.47,2.47,0,1,1,4.95,0v7.77H772.3v-7.77a2.47,2.47,0,0,1,4.95,0v20.14a2.47,2.47,0,0,1-4.95,0v-8.13H761.17Z"
    /><path
      class="cls-5"
      d="M803,301.51a3.17,3.17,0,0,1-.88,1.94L794,314.76v6.89a2.42,2.42,0,0,1-2.47,2.47,2.32,2.32,0,0,1-2.47-2.47v-6.89L781,303.45a3.17,3.17,0,0,1-.88-1.94,2.42,2.42,0,0,1,2.47-2.47,3,3,0,0,1,2.12,1.24l6.79,9.37h.21l6.79-9.37a3,3,0,0,1,2.12-1.24A2.42,2.42,0,0,1,803,301.51Z"
    /><path
      class="cls-6"
      d="M487.45,379.73a2.47,2.47,0,0,1-4.95,0V359.59a2.47,2.47,0,0,1,4.95,0v7.77h11.13v-7.77a2.47,2.47,0,0,1,4.95,0v20.14a2.47,2.47,0,0,1-4.95,0V371.6H487.45Z"
    /><path
      class="cls-6"
      d="M522.61,359.06l8.13,19.08a5.22,5.22,0,0,1,.35,1.59,2.48,2.48,0,0,1-2.47,2.47c-1.41,0-2.12-.74-2.65-2.12L524.38,376h-11l-1.59,4.06c-.53,1.38-1.24,2.12-2.65,2.12a2.48,2.48,0,0,1-2.47-2.47,5.23,5.23,0,0,1,.35-1.59l8.13-19.08a4,4,0,0,1,7.42,0Zm-7.42,12.37h7.42l-3.6-9h-.21Z"
    /><path
      class="cls-6"
      d="M550.35,357.29a2.34,2.34,0,0,1,2.3,2.3,4.4,4.4,0,0,1-1.24,2.65l-12.05,15v.21h11.34a2.3,2.3,0,1,1,0,4.59H534.27a2.34,2.34,0,0,1-2.3-2.3,4.57,4.57,0,0,1,1.06-2.47l12.55-15.2v-.18H534.81a2.38,2.38,0,0,1-2.47-2.3,2.34,2.34,0,0,1,2.3-2.3Z"
    /><path
      class="cls-6"
      d="M569.79,359.06l8.13,19.08a5.22,5.22,0,0,1,.35,1.59,2.48,2.48,0,0,1-2.47,2.47c-1.41,0-2.12-.74-2.65-2.12L571.56,376h-11L559,380.08c-.53,1.38-1.24,2.12-2.65,2.12a2.48,2.48,0,0,1-2.47-2.47,5.23,5.23,0,0,1,.35-1.59l8.13-19.08a4,4,0,0,1,7.42,0Zm-7.42,12.37h7.42l-3.6-9H566Z"
    /><path
      class="cls-6"
      d="M592.94,357.29c5.48,0,9,3.53,9,7.77a7.19,7.19,0,0,1-4.59,6.71V372l4.95,6.18a3.37,3.37,0,0,1,.71,1.77,2.23,2.23,0,0,1-2.3,2.3,2.63,2.63,0,0,1-1.94-.88L592,372.84H586.4v6.89a2.47,2.47,0,1,1-4.95,0v-20a2.42,2.42,0,0,1,2.47-2.47Zm0,4.59H586.4v6.36h6.54c2.47,0,3.89-1.41,3.89-3.18C596.83,363.12,595.42,361.88,592.94,361.88Z"
    /><path
      class="cls-6"
      d="M616.13,357.29c6.68,0,11.27,4.59,11.27,10.28v4.17c0,5.69-4.59,10.28-11.27,10.28H609a2.42,2.42,0,0,1-2.47-2.47V359.76a2.42,2.42,0,0,1,2.47-2.47Zm0,20.14c3.85,0,6.33-2.47,6.33-5.69v-4.17c0-3.22-2.47-5.69-6.33-5.69H611.5v15.55Z"
    /><path
      class="cls-6"
      d="M653.38,372.49c0,5.65-4.59,10.25-11.13,10.25s-11.13-4.59-11.13-10.25v-5.65c0-5.65,4.59-10.25,11.13-10.25s11.13,4.59,11.13,10.25Zm-4.95,0v-5.65c0-3.18-2.47-5.65-6.18-5.65s-6.18,2.47-6.18,5.65v5.65c0,3.18,2.47,5.65,6.18,5.65S648.43,375.67,648.43,372.49Z"
    /><path
      class="cls-6"
      d="M662.92,359.59V373c0,3,2.12,5.12,5.65,5.12s5.65-2.12,5.65-5.16V359.59a2.47,2.47,0,0,1,4.95,0V373c0,5.51-4.24,9.75-10.6,9.75S658,378.49,658,373V359.59a2.47,2.47,0,1,1,4.95,0Z"
    /><path
      class="cls-6"
      d="M698.44,374.78c0-4.24-14.84-1.77-14.84-10.78,0-3.89,3.53-7.42,9.9-7.42,6,0,9.37,3.36,9.37,5.3a2.34,2.34,0,0,1-2.3,2.3,2.53,2.53,0,0,1-1.94-.88,6.08,6.08,0,0,0-5.12-2.12c-3.36,0-4.77,1.41-4.77,2.83,0,4.42,14.84,1.77,14.84,10.78,0,4.24-3.71,8-10.78,8-6,0-9.89-3.89-9.89-5.83a2.34,2.34,0,0,1,2.3-2.3,2.53,2.53,0,0,1,1.94.88,7.45,7.45,0,0,0,5.65,2.65C697,378.14,698.44,376.73,698.44,374.78Z"
    /><path
      class="cls-9"
      d="M1127.7,168H480.09a.5.5,0,0,1,0-1H1127.7a.5.5,0,0,1,0,1Z"
    /><path
      class="cls-9"
      d="M1127.7,227.56H480.09a.5.5,0,0,1,0-1H1127.7a.5.5,0,0,1,0,1Z"
    /><path
      class="cls-9"
      d="M732.5,107.45h287.26l.11,0a50.11,50.11,0,0,0-47.29-61.66,50.15,50.15,0,0,0-69.82-18.54,33.9,33.9,0,0,0-66.46,2.06,50.14,50.14,0,0,0-58.87,21.45,50.07,50.07,0,0,0-45,56.68Z"
    /><path
      class="cls-9"
      d="M732.58,108.45A50.14,50.14,0,0,0,825,126.75a49.82,49.82,0,0,0,22.52-7.81,50.12,50.12,0,0,0,84,7.7,50.13,50.13,0,0,0,88.15-18.19Z"
    /><path
      class="cls-9"
      d="M1167.22,256.41a60.41,60.41,0,0,0-38.56,13.83,72.57,72.57,0,0,0-109.18-17A72.59,72.59,0,0,0,905.4,340.89h224.06a.5.5,0,0,1,0,1H906a72.36,72.36,0,0,0,45.55,33.61l.54.12A45.23,45.23,0,0,0,1021,408.22a60.65,60.65,0,0,0,102.29,3.55A41,41,0,0,0,1176.67,377a60.66,60.66,0,0,0-9.45-120.58ZM1127.48,283H900a.5.5,0,1,1,0-1h227.47a.5.5,0,0,1,0,1Z"
    /><path
      class="cls-9"
      d="M184.29,293.76a1.5,1.5,0,0,1,1.5-1.5h55.92a82.31,82.31,0,0,0,11.9-14.05H185.79a1.5,1.5,0,0,1-1.5-1.5V234.89a1.5,1.5,0,0,1,1.5-1.5h81.74a82.19,82.19,0,0,0-.77-12.46h-81a1.5,1.5,0,0,1-1.5-1.5V177.61a1.5,1.5,0,0,1,1.5-1.5H291.36a42.82,42.82,0,0,0-3.43-13.26H185.79a1.5,1.5,0,0,1-1.5-1.5V119.53a1.5,1.5,0,0,1,1.5-1.5h41.46a69.26,69.26,0,0,0-17.69-13.26H185.79a1.5,1.5,0,0,1-1.5-1.5v-6c-2.2-.21-4.43-.33-6.69-.33A68.91,68.91,0,0,0,124.35,122a46.71,46.71,0,0,0-64.46,38.24,69.05,69.05,0,1,0,57.27,119.24,82.52,82.52,0,0,0,67.14,35.36Z"
    /><path
      class="cls-9"
      d="M732.82,107.45H480.09a.5.5,0,0,0,0,1H732.95C732.9,108.12,732.86,107.79,732.82,107.45Z"
    /><path
      class="cls-9"
      d="M1127.7,107.45H1020.25c-.08.33-.15.67-.23,1H1127.7a.5.5,0,0,0,0-1Z"
    /><path
      class="cls-9"
      d="M480.09,283.13H899.18l.32-1H480.09a.5.5,0,0,0,0,1Z"
    /><path
      class="cls-9"
      d="M905.39,340.88H480.09a.5.5,0,0,0,0,1H906Z"
    /></g></svg>
